<svg width="156" height="73" viewBox="0 0 156 73" fill="none" xmlns="http://www.w3.org/2000/svg">
<path d="M76.3014 0.0644722C74.8907 0.294247 73.8451 0.759262 72.7853 1.61818C71.8472 2.38409 71.3316 3.13359 71.0666 4.11833C70.8231 5.01007 70.9234 6.08781 71.3173 6.97408C71.8543 8.17218 72.8569 9.05845 74.7976 10.0487C75.8288 10.5684 75.836 10.5739 75.9362 10.8474C76.0007 11.0334 76.0293 11.4875 76.0365 12.2972C76.0436 13.3311 76.0221 13.5117 75.9004 13.7688C75.6569 14.2885 75.6426 14.294 73.6303 14.294H71.8973L71.2958 13.8946C70.4364 13.3202 70.2502 13.2546 69.4625 13.2546C68.8825 13.2546 68.7822 13.271 68.4313 13.4187C67.6293 13.7579 67.2354 14.3597 67.2927 15.1693C67.3285 15.7438 67.572 16.1431 68.1449 16.5753C68.596 16.92 68.8681 17.002 69.4983 17.002C69.9924 17.002 70.3791 16.8653 70.7515 16.5644C71.1525 16.2416 71.7254 15.9735 72.241 15.8696C73.2078 15.6781 74.9694 15.8039 75.6712 16.1212L75.929 16.2416L75.972 19.6444C76.0723 27.6263 76.0794 30.4711 76.015 30.7501C75.7858 31.6638 74.8262 32.4242 73.4226 32.7962C72.7137 32.9822 71.4104 33.0315 70.4293 32.9002C68.7034 32.6704 66.9346 32.0303 65.0584 30.9471C64.6072 30.69 64.0129 30.3125 63.7336 30.1155L63.2323 29.7599L63.8195 29.3441C64.4569 28.8901 64.7003 28.6329 64.7003 28.4251C64.7003 28.3156 64.5643 28.2226 63.9699 27.9163C61.8932 26.844 59.8809 25.5802 59.2364 24.9347C59.0359 24.7377 58.8282 24.5791 58.7637 24.5791C58.5346 24.5791 58.1479 25.8921 58.0405 27.0628C57.8686 28.8791 58.2553 30.8049 58.9929 31.8552C59.1934 32.1452 59.2507 32.1835 59.4584 32.1999C59.6517 32.2163 59.7663 32.1725 60.0671 31.9756C60.5254 31.6802 60.6972 31.6091 60.9622 31.6091C61.1341 31.6091 61.22 31.6692 61.5494 32.0303C62.9029 33.5129 64.7648 34.9517 66.462 35.8216C67.7224 36.4781 68.818 36.8501 71.5034 37.5449C74.5111 38.3217 74.948 38.4694 76.2012 39.1314C76.9173 39.5144 77.2968 39.8535 77.6692 40.428C77.7981 40.6359 77.9485 40.8 77.9986 40.8C78.0416 40.8 78.1848 40.6523 78.3066 40.4772C78.7147 39.8918 79.216 39.487 80.104 39.0329C81.0851 38.5351 81.1997 38.4913 83.9281 37.7035C87.1649 36.7625 87.8023 36.5437 89.0555 35.9529C90.8959 35.083 92.7363 33.7591 94.2903 32.1835C94.6412 31.8224 94.9992 31.5106 95.078 31.4887C95.2785 31.4285 95.6151 31.5598 96.0233 31.8552C96.231 32.0084 96.41 32.096 96.4744 32.0795C96.5317 32.0631 96.6391 32.0467 96.7036 32.0467C96.854 32.0467 97.255 31.4176 97.4985 30.8158C97.9067 29.7818 98.1143 27.8123 97.9353 26.6361C97.8279 25.9413 97.5773 25.159 97.3123 24.7159C97.0187 24.2071 96.9829 24.2071 96.6463 24.6994C96.0448 25.5748 95.3143 26.1164 93.4524 27.0519C91.655 27.9546 91.1967 28.2226 91.1967 28.343C91.1967 28.4141 91.4974 28.6822 91.9772 29.0487L92.7578 29.6396L92.2135 30.028C91.1823 30.7666 89.5424 31.6364 88.2964 32.1124C86.0335 32.9822 83.6345 33.1682 82.0662 32.5938C80.7485 32.1124 79.9751 31.1003 79.8462 29.6888C79.8032 29.2129 79.7316 23.37 79.7101 18.9442C79.703 17.0458 79.7531 16.5097 79.9679 16.1541C80.1183 15.9024 80.6411 15.8258 82.3168 15.8258C83.7777 15.8258 83.7848 15.8258 84.1071 15.9735C84.2861 16.0501 84.6657 16.2744 84.9521 16.4714C85.3531 16.7504 85.5537 16.8434 85.8329 16.8926C86.5491 17.0239 87.1434 16.8707 87.7521 16.3893C88.1961 16.0392 88.3823 15.7602 88.4897 15.3006C88.633 14.666 88.3823 14.0314 87.8237 13.6047C87.3869 13.271 86.9787 13.1506 86.2913 13.1506C85.5895 13.1506 85.3961 13.2163 84.7158 13.7196C84.4437 13.922 84.1071 14.1299 83.971 14.1791C83.5987 14.3268 82.3956 14.3979 81.3859 14.3323C80.3332 14.2612 80.0825 14.1846 79.9393 13.9056C79.6958 13.4351 79.5383 11.8923 79.66 11.1592C79.7818 10.4371 79.8176 10.3988 80.7986 10.0541C81.5219 9.79154 81.7153 9.69307 82.238 9.31558C83.0258 8.74115 83.4698 8.28707 83.8994 7.61964C84.501 6.66772 84.7301 5.73221 84.6012 4.7037C84.3291 2.4935 82.3741 0.731907 79.5598 0.173889C78.6718 -0.00117874 77.0534 -0.0558853 76.3014 0.0644722ZM78.9725 2.42238C79.9894 2.58651 80.8989 3.06794 81.2713 3.6369C81.7296 4.34263 81.8298 5.44226 81.4933 6.19723C81.035 7.25309 80.0754 7.97523 78.8365 8.19954C78.2922 8.29801 77.1966 8.2816 76.6953 8.17218C75.5781 7.92053 74.5756 7.31874 74.1674 6.65678C73.8666 6.16441 73.7592 5.78145 73.7664 5.18513C73.7664 3.97609 74.5971 3.06247 76.1009 2.60839C76.9531 2.35126 78.0846 2.27467 78.9725 2.42238Z" fill="#41644A"/>
<path d="M5.45354 72.3077H2V45.8H5.45354C8.90708 45.8 11.833 47.138 14.2313 49.814C16.6295 52.49 17.8287 55.57 17.8287 59.0538C17.8287 62.5377 16.6295 65.6177 14.2313 68.2937C11.833 70.9696 8.90708 72.3077 5.45354 72.3077ZM5.45354 71.1717C8.5953 71.1717 11.2574 69.9599 13.4398 67.5363C15.6463 65.0876 16.7495 62.26 16.7495 59.0538C16.7495 55.8477 15.6463 53.0328 13.4398 50.6092C11.2574 48.1604 8.5953 46.936 5.45354 46.936H3.07923V71.1717H5.45354ZM33.6853 51.5181C32.8699 51.2404 31.8626 51.1015 30.6634 51.1015C29.4642 51.1015 28.4569 51.2404 27.6416 51.5181C26.8262 51.7705 26.0707 52.2628 25.3752 52.9949C24.7037 53.7018 24.2001 54.7495 23.8643 56.138C23.5284 57.5013 23.3606 59.2305 23.3606 61.3259C23.3606 63.4214 23.5284 65.1633 23.8643 66.5517C24.2001 67.915 24.7037 68.9626 25.3752 69.6948C26.0707 70.4016 26.8262 70.8939 27.6416 71.1717C28.4569 71.4241 29.4642 71.5503 30.6634 71.5503C31.8626 71.5503 32.8699 71.4241 33.6853 71.1717C34.5006 70.8939 35.2442 70.4016 35.9157 69.6948C36.6112 68.9626 37.1268 67.915 37.4626 66.5517C37.7984 65.1633 37.9662 63.4214 37.9662 61.3259C37.9662 59.2305 37.7984 57.5013 37.4626 56.138C37.1268 54.7495 36.6112 53.7018 35.9157 52.9949C35.2442 52.2628 34.5006 51.7705 33.6853 51.5181ZM37.1028 69.9977C35.8077 71.7902 33.6613 72.6864 30.6634 72.6864C27.6655 72.6864 25.5191 71.7902 24.224 69.9977C22.9289 68.2053 22.2814 65.3148 22.2814 61.3259C22.2814 57.3372 22.9289 54.4466 24.224 52.6541C25.5191 50.8617 27.6655 49.9655 30.6634 49.9655C33.6613 49.9655 35.8077 50.8617 37.1028 52.6541C38.3979 54.4466 39.0454 57.3372 39.0454 61.3259C39.0454 65.3148 38.3979 68.2053 37.1028 69.9977ZM46.0405 69.9977C44.7454 68.2053 44.0979 65.3148 44.0979 61.3259C44.0979 57.3372 44.7454 54.4466 46.0405 52.6541C47.3356 50.8617 49.482 49.9655 52.4799 49.9655C55.4778 49.9655 57.6363 50.8365 58.9553 52.5784L58.1639 53.3358C57.1086 51.8463 55.214 51.1015 52.4799 51.1015C51.2807 51.1015 50.2734 51.2404 49.4581 51.5181C48.6427 51.7705 47.8872 52.2628 47.1917 52.9949C46.5202 53.7018 46.0166 54.7495 45.6808 56.138C45.345 57.5013 45.1771 59.2305 45.1771 61.3259C45.1771 63.4214 45.345 65.1633 45.6808 66.5517C46.0166 67.915 46.5202 68.9626 47.1917 69.6948C47.8872 70.4016 48.6427 70.8939 49.4581 71.1717C50.2734 71.4241 51.2807 71.5503 52.4799 71.5503C55.214 71.5503 57.1086 70.8056 58.1639 69.3161L58.9553 70.0735C57.6363 71.8154 55.4778 72.6864 52.4799 72.6864C49.482 72.6864 47.3356 71.7902 46.0405 69.9977ZM64.3194 72.3077V50.3442H65.3986V72.3077H64.3194ZM77.6299 72.3077L66.5498 60.72L76.4787 50.3442H78.0256L68.0967 60.72L79.1768 72.3077H77.6299ZM81.2147 50.3442L89.0571 69.7705L94.4893 56.3273L99.8854 69.7705L107.26 51.4802H84.0567V50.3442H108.879L99.8854 72.6864L94.4893 59.2432L89.0571 72.6864L80.0635 50.3442H81.2147ZM112.941 50.3442H114.02V72.3077H112.941V50.3442ZM126.35 49.8898C129.324 49.8898 131.434 50.584 132.681 51.9725L131.962 52.8056C130.81 51.6191 128.988 51.0258 126.493 51.0258C122.752 51.0258 120.881 52.591 120.881 55.7214C120.881 56.9332 121.337 57.9052 122.248 58.6373C123.16 59.3441 124.263 59.8869 125.558 60.2656C126.877 60.6443 128.184 61.0482 129.479 61.4774C130.798 61.8813 131.914 62.5504 132.825 63.4844C133.736 64.3933 134.192 65.5924 134.192 67.0819C134.192 68.8238 133.508 70.2123 132.141 71.2474C130.774 72.2825 128.796 72.8 126.206 72.8C124.935 72.8 123.676 72.6233 122.428 72.2698C121.205 71.9164 120.294 71.3989 119.694 70.7172L120.414 69.8841C121.637 71.0707 123.52 71.6639 126.062 71.6639C128.388 71.6639 130.139 71.2095 131.314 70.3007C132.513 69.3919 133.113 68.3315 133.113 67.1198C133.113 65.8574 132.657 64.835 131.746 64.0524C130.834 63.2699 129.719 62.6892 128.4 62.3105C127.105 61.9066 125.798 61.5026 124.479 61.0987C123.184 60.6695 122.081 60.0132 121.169 59.1296C120.258 58.246 119.802 57.0847 119.802 55.6457C119.802 53.7018 120.414 52.2628 121.637 51.3287C122.884 50.3694 124.455 49.8898 126.35 49.8898ZM153.388 70.0735C152.068 71.8154 149.91 72.6864 146.913 72.6864C143.915 72.6864 141.769 71.7902 140.474 69.9977C139.178 68.2053 138.531 65.3148 138.531 61.3259C138.531 57.3372 139.178 54.4466 140.474 52.6541C141.769 50.8617 143.915 49.9655 146.913 49.9655C150.39 49.9655 152.752 51.1646 154 53.563L145.186 61.3259H143.495L152.597 53.3358C151.541 51.8463 149.647 51.1015 146.913 51.1015C145.713 51.1015 144.706 51.2404 143.891 51.5181C143.075 51.7705 142.319 52.2628 141.625 52.9949C140.952 53.7018 140.449 54.7495 140.114 56.138C139.778 57.5013 139.61 59.2305 139.61 61.3259C139.61 63.4214 139.778 65.1633 140.114 66.5517C140.449 67.915 140.952 68.9626 141.625 69.6948C142.319 70.4016 143.075 70.8939 143.891 71.1717C144.706 71.4241 145.713 71.5503 146.913 71.5503C149.647 71.5503 151.541 70.8056 152.597 69.3161L153.388 70.0735Z" fill="#41644A"/>
</svg>
